<?xml version="1.0" encoding="UTF-8" standalone="no"?>
<svg width="456" height="456" viewBox="0 0 456 456" version="1.1" xmlns="http://www.w3.org/2000/svg">
    <defs>
        <linearGradient id="bg" x1="0%" y1="0%" x2="100%" y2="100%">
            <stop offset="0%" stop-color="#1E3A8A" />
            <stop offset="55%" stop-color="#7E22CE" />
            <stop offset="100%" stop-color="#EC4899" />
        </linearGradient>
        <radialGradient id="shine" cx="22%" cy="16%" r="64%">
            <stop offset="0%" stop-color="#FFFFFF" stop-opacity="0.38" />
            <stop offset="100%" stop-color="#FFFFFF" stop-opacity="0" />
        </radialGradient>
    </defs>

    <rect x="0" y="0" width="456" height="456" fill="url(#bg)" />
    <circle cx="116" cy="88" r="158" fill="url(#shine)" />

    <g transform="translate(86 94)">
        <rect x="0" y="0" width="284" height="268" rx="54" fill="#0B122B" fill-opacity="0.34" stroke="#FFFFFF" stroke-opacity="0.94" stroke-width="14" />
        <rect x="28" y="66" width="228" height="156" rx="24" fill="#0E152D" />
        <polygon points="126,96 126,192 200,144" fill="#38BDF8" />
        <rect x="208" y="90" width="54" height="78" rx="16" fill="#EC4899" />
        <rect x="226" y="108" width="8" height="44" fill="#FFFFFF" />
        <rect x="226" y="108" width="22" height="8" fill="#FFFFFF" />
        <rect x="226" y="128" width="18" height="8" fill="#FFFFFF" />

        <circle cx="54" cy="34" r="9" fill="#F8FAFC" />
        <circle cx="88" cy="34" r="9" fill="#F8FAFC" />
        <circle cx="122" cy="34" r="9" fill="#F8FAFC" />
        <circle cx="156" cy="34" r="9" fill="#F8FAFC" />
        <circle cx="190" cy="34" r="9" fill="#F8FAFC" />
        <circle cx="224" cy="34" r="9" fill="#F8FAFC" />

        <circle cx="54" cy="238" r="9" fill="#F8FAFC" />
        <circle cx="88" cy="238" r="9" fill="#F8FAFC" />
        <circle cx="122" cy="238" r="9" fill="#F8FAFC" />
        <circle cx="156" cy="238" r="9" fill="#F8FAFC" />
        <circle cx="190" cy="238" r="9" fill="#F8FAFC" />
        <circle cx="224" cy="238" r="9" fill="#F8FAFC" />
    </g>
</svg>
