<?xml version="1.0" encoding="UTF-8" standalone="no"?>
<svg width="456" height="456" viewBox="0 0 456 456" version="1.1" xmlns="http://www.w3.org/2000/svg">
    <g transform="translate(92 98)">
        <rect x="0" y="0" width="272" height="260" rx="50" fill="#FFFFFF" />
        <rect x="24" y="62" width="224" height="150" rx="24" fill="#0F172A" />
        <polygon points="122,92 122,182 192,137" fill="#38BDF8" />
        <rect x="192" y="86" width="52" height="76" rx="15" fill="#EC4899" />
        <rect x="208" y="104" width="8" height="42" fill="#FFFFFF" />
        <rect x="208" y="104" width="20" height="8" fill="#FFFFFF" />
        <rect x="208" y="122" width="16" height="8" fill="#FFFFFF" />

        <circle cx="50" cy="34" r="8" fill="#CBD5E1" />
        <circle cx="82" cy="34" r="8" fill="#CBD5E1" />
        <circle cx="114" cy="34" r="8" fill="#CBD5E1" />
        <circle cx="146" cy="34" r="8" fill="#CBD5E1" />
        <circle cx="178" cy="34" r="8" fill="#CBD5E1" />
        <circle cx="210" cy="34" r="8" fill="#CBD5E1" />

        <circle cx="50" cy="236" r="8" fill="#CBD5E1" />
        <circle cx="82" cy="236" r="8" fill="#CBD5E1" />
        <circle cx="114" cy="236" r="8" fill="#CBD5E1" />
        <circle cx="146" cy="236" r="8" fill="#CBD5E1" />
        <circle cx="178" cy="236" r="8" fill="#CBD5E1" />
        <circle cx="210" cy="236" r="8" fill="#CBD5E1" />
    </g>
</svg>
