<?xml version="1.0" encoding="UTF-8" standalone="no"?>
<svg width="456" height="456" viewBox="0 0 456 456" version="1.1" xmlns="http://www.w3.org/2000/svg">
    <g transform="translate(90 96)">
        <rect x="0" y="0" width="276" height="264" rx="52" fill="#FFFFFF" fill-opacity="0.95" />
        <rect x="26" y="64" width="224" height="152" rx="24" fill="#0F172A" />
        <polygon points="124,94 124,186 196,140" fill="#38BDF8" />
        <rect x="194" y="88" width="52" height="76" rx="15" fill="#EC4899" />
        <rect x="210" y="106" width="8" height="42" fill="#FFFFFF" />
        <rect x="210" y="106" width="20" height="8" fill="#FFFFFF" />
        <rect x="210" y="124" width="16" height="8" fill="#FFFFFF" />

        <circle cx="52" cy="36" r="8" fill="#D1D5DB" />
        <circle cx="84" cy="36" r="8" fill="#D1D5DB" />
        <circle cx="116" cy="36" r="8" fill="#D1D5DB" />
        <circle cx="148" cy="36" r="8" fill="#D1D5DB" />
        <circle cx="180" cy="36" r="8" fill="#D1D5DB" />
        <circle cx="212" cy="36" r="8" fill="#D1D5DB" />

        <circle cx="52" cy="238" r="8" fill="#D1D5DB" />
        <circle cx="84" cy="238" r="8" fill="#D1D5DB" />
        <circle cx="116" cy="238" r="8" fill="#D1D5DB" />
        <circle cx="148" cy="238" r="8" fill="#D1D5DB" />
        <circle cx="180" cy="238" r="8" fill="#D1D5DB" />
        <circle cx="212" cy="238" r="8" fill="#D1D5DB" />
    </g>
</svg>
